<svg width="340" height="128" viewBox="0 0 340 128" fill="none" xmlns="http://www.w3.org/2000/svg">
<path d="M323.278 127.943C322.068 127.943 320.886 127.858 319.733 127.688C318.598 127.537 317.539 127.253 316.556 126.837C315.573 126.421 314.703 125.835 313.947 125.079C313.209 124.303 312.632 123.32 312.217 122.129C311.801 120.938 311.593 119.491 311.593 117.789C311.593 116.144 311.801 114.745 312.217 113.592C312.632 112.438 313.2 111.493 313.918 110.756C314.656 109.999 315.507 109.413 316.471 108.997C317.454 108.581 318.504 108.298 319.619 108.146C320.735 107.976 321.888 107.891 323.079 107.891H334.056V105.991C334.056 103.967 333.706 102.351 333.006 101.141C332.326 99.9117 331.361 99.023 330.113 98.4746C328.884 97.9263 327.457 97.6521 325.831 97.6521C324.337 97.6521 323.013 97.9074 321.86 98.4179C320.706 98.9284 319.761 99.7509 319.024 100.885C318.286 102.02 317.794 103.514 317.549 105.367L311.933 103.863C312.198 102.029 312.708 100.469 313.464 99.1837C314.221 97.8979 315.204 96.858 316.414 96.0638C317.624 95.2507 319.014 94.6551 320.583 94.277C322.172 93.8988 323.911 93.7097 325.802 93.7097C328.714 93.7097 331.21 94.1162 333.29 94.9293C335.389 95.7424 336.996 97.0659 338.111 98.9001C339.246 100.715 339.813 103.164 339.813 106.246V127.631H334.992L334.509 123.377C334.32 123.85 333.933 124.351 333.347 124.88C332.779 125.41 332.023 125.911 331.078 126.383C330.151 126.856 329.035 127.234 327.731 127.518C326.426 127.801 324.942 127.943 323.278 127.943ZM324.526 124.256C325.793 124.256 326.965 124.133 328.043 123.887C329.121 123.642 330.075 123.311 330.907 122.895C331.739 122.46 332.42 121.978 332.95 121.448C333.498 120.9 333.867 120.333 334.056 119.747L334.169 111.181H324.384C323.458 111.181 322.578 111.266 321.746 111.436C320.914 111.606 320.167 111.918 319.506 112.372C318.863 112.826 318.352 113.478 317.974 114.329C317.615 115.18 317.435 116.286 317.435 117.648C317.435 119.009 317.624 120.125 318.002 120.994C318.381 121.845 318.901 122.507 319.562 122.98C320.243 123.453 321.009 123.783 321.86 123.973C322.711 124.162 323.599 124.256 324.526 124.256Z" fill="#2BDEFD"/>
<path d="M293.2 127.915C288.038 127.915 284.303 126.45 281.997 123.519C279.69 120.569 278.536 116.352 278.536 110.869C278.536 105.083 279.69 100.781 281.997 97.9641C284.303 95.1468 288.038 93.7381 293.2 93.7381C297.927 93.7381 301.283 94.9482 303.268 97.3685C305.273 99.7699 306.369 102.445 306.559 105.395L301.425 107.097C301.349 104.279 300.602 102.02 299.184 100.318C297.785 98.6164 295.79 97.7656 293.2 97.7656C290.553 97.7656 288.416 98.7204 286.79 100.63C285.183 102.54 284.379 105.953 284.379 110.869C284.379 115.464 285.192 118.792 286.818 120.853C288.444 122.895 290.572 123.916 293.2 123.916C295.771 123.916 297.766 122.999 299.184 121.165C300.602 119.312 301.349 117.137 301.425 114.641L306.559 116.4C306.369 119.028 305.273 121.609 303.268 124.143C301.264 126.658 297.908 127.915 293.2 127.915Z" fill="#2BDEFD"/>
<path d="M259.752 127.915C254.533 127.915 250.77 126.402 248.463 123.377C246.175 120.352 245.031 116.144 245.031 110.756C245.031 105.083 246.204 100.829 248.548 97.9925C250.893 95.1373 254.599 93.7097 259.667 93.7097C264.866 93.7097 268.582 95.1373 270.813 97.9925C273.063 100.829 274.188 105.055 274.188 110.67C274.188 111.332 274.15 111.947 274.075 112.514H249.967V108.94H268.799L268.487 109.564C268.487 105.178 267.712 102.077 266.162 100.261C264.611 98.4273 262.446 97.5103 259.667 97.5103C256.963 97.5103 254.769 98.4652 253.086 100.375C251.423 102.285 250.591 105.745 250.591 110.756C250.591 115.502 251.394 118.924 253.001 121.023C254.627 123.103 256.878 124.143 259.752 124.143V127.915ZM259.752 124.143C261.397 124.143 262.824 123.869 264.034 123.32C265.263 122.753 266.209 121.808 266.871 120.484C267.551 119.16 268.052 117.676 268.374 116.031L273.536 117.421C273.214 119.728 272.467 121.685 271.295 123.292C270.123 124.899 268.61 126.071 266.757 126.809C264.923 127.546 262.588 127.915 259.752 127.915V124.143Z" fill="#2BDEFD"/>
<path d="M233.483 128C231.006 128 228.935 127.461 227.272 126.383C225.608 125.306 224.776 123.292 224.776 120.342V98.0493H216.919V94.0218H224.776V86.4207H230.533V94.0218H241.623V98.0493H230.533V118.981C230.533 121.042 230.949 122.403 231.781 123.065C232.632 123.727 233.842 124.058 235.412 124.058C236.792 124.058 238.134 123.84 239.439 123.405V127.291C237.548 127.764 235.563 128 233.483 128Z" fill="#2BDEFD"/>
<path d="M199.094 127.887C194.083 127.887 190.358 126.487 187.919 123.689C185.498 120.89 184.288 116.57 184.288 110.727C184.288 104.885 185.498 100.583 187.919 97.8223C190.358 95.0616 194.083 93.6813 199.094 93.6813C204.104 93.6813 207.82 95.0616 210.24 97.8223C212.66 100.583 213.87 104.885 213.87 110.727C213.87 116.57 212.66 120.89 210.24 123.689C207.82 126.487 204.104 127.887 199.094 127.887ZM199.094 123.916C201.722 123.916 203.887 122.999 205.589 121.165C207.29 119.312 208.141 115.842 208.141 110.756C208.141 105.688 207.29 102.237 205.589 100.403C203.887 98.5502 201.722 97.6237 199.094 97.6237C196.465 97.6237 194.3 98.5502 192.599 100.403C190.897 102.237 190.046 105.688 190.046 110.756C190.046 115.842 190.897 119.312 192.599 121.165C194.3 122.999 196.465 123.916 199.094 123.916Z" fill="#2BDEFD"/>
<path d="M135.869 127.631V94.0217H140.379L141.599 99.6091V127.631H135.869ZM154.674 127.631V107.466C154.674 104.175 154.21 101.736 153.284 100.148C152.357 98.5408 150.845 97.7372 148.746 97.7372C146.609 97.7372 144.879 98.607 143.556 100.347C142.232 102.086 141.57 104.506 141.57 107.607L138.507 106.104C138.507 102.814 139.67 99.9306 141.996 97.4536C144.34 94.9577 147.205 93.7097 150.59 93.7097C154.39 93.7097 156.971 94.986 158.332 97.5387C159.713 100.091 160.403 103.268 160.403 107.068V127.631H154.674ZM173.393 127.631V107.466C173.393 104.175 172.939 101.736 172.032 100.148C171.143 98.5408 169.64 97.7372 167.522 97.7372C165.385 97.7372 163.655 98.607 162.332 100.347C161.008 102.086 160.346 104.506 160.346 107.607L157.311 106.104C157.311 102.871 158.474 99.9967 160.8 97.4819C163.145 94.9671 166 93.7097 169.366 93.7097C173.166 93.7097 175.738 94.986 177.08 97.5387C178.442 100.072 179.122 103.249 179.122 107.068V127.631H173.393Z" fill="#2BDEFD"/>
<path d="M115.723 127.915C110.505 127.915 106.742 126.402 104.435 123.377C102.147 120.352 101.003 116.144 101.003 110.756C101.003 105.083 102.175 100.829 104.52 97.9925C106.865 95.1373 110.571 93.7097 115.638 93.7097C120.838 93.7097 124.554 95.1373 126.785 97.9925C129.035 100.829 130.16 105.055 130.16 110.67C130.16 111.332 130.122 111.947 130.046 112.514H105.938V108.94H124.771L124.459 109.564C124.459 105.178 123.684 102.077 122.133 100.261C120.583 98.4273 118.418 97.5103 115.638 97.5103C112.934 97.5103 110.741 98.4652 109.058 100.375C107.394 102.285 106.562 105.745 106.562 110.756C106.562 115.502 107.366 118.924 108.973 121.023C110.599 123.103 112.849 124.143 115.723 124.143V127.915ZM115.723 124.143C117.368 124.143 118.796 123.869 120.006 123.32C121.235 122.753 122.181 121.808 122.842 120.484C123.523 119.16 124.024 117.676 124.346 116.031L129.507 117.421C129.186 119.728 128.439 121.685 127.267 123.292C126.095 124.899 124.582 126.071 122.729 126.809C120.895 127.546 118.56 127.915 115.723 127.915V124.143Z" fill="#2BDEFD"/>
<path d="M52.499 127.631V94.0217H57.0087L58.2283 99.6091V127.631H52.499ZM71.3034 127.631V107.466C71.3034 104.175 70.8401 101.736 69.9136 100.148C68.9871 98.5408 67.4744 97.7372 65.3756 97.7372C63.239 97.7372 61.5088 98.607 60.1853 100.347C58.8617 102.086 58.1999 104.506 58.1999 107.607L55.1367 106.104C55.1367 102.814 56.2996 99.9306 58.6253 97.4536C60.97 94.9577 63.8346 93.7097 67.2192 93.7097C71.0197 93.7097 73.6007 94.986 74.9621 97.5387C76.3424 100.091 77.0326 103.268 77.0326 107.068V127.631H71.3034ZM90.0226 127.631V107.466C90.0226 104.175 89.5688 101.736 88.6612 100.148C87.7725 98.5408 86.2693 97.7372 84.1516 97.7372C82.0149 97.7372 80.2848 98.607 78.9612 100.347C77.6377 102.086 76.9759 104.506 76.9759 107.607L73.9411 106.104C73.9411 102.871 75.1039 99.9967 77.4297 97.4819C79.7743 94.9671 82.6295 93.7097 85.9951 93.7097C89.7957 93.7097 92.3673 94.986 93.7098 97.5387C95.0712 100.072 95.7519 103.249 95.7519 107.068V127.631H90.0226Z" fill="#2BDEFD"/>
<g clip-path="url(#clip0_1848_173)">
<path d="M20.3903 75.965C21.3839 75.965 22.1939 75.1526 22.1939 74.1559C22.1939 73.1593 21.3923 72.3468 20.3903 72.3468C11.1305 72.3468 3.59067 64.7671 3.59067 55.4536C3.59067 48.0414 8.54205 41.3913 15.631 39.2891C16.1069 39.1467 16.5077 38.8117 16.7331 38.3678C16.9586 37.9239 16.9836 37.3962 16.8166 36.9272C15.8063 34.1801 15.297 31.2906 15.297 28.3424C15.297 14.7072 26.327 3.6098 39.8953 3.6098C50.1821 3.6098 59.467 10.151 62.9906 19.8916C63.2328 20.5533 63.8256 21.0139 64.5186 21.0809C65.195 21.1563 65.8796 20.8045 66.2303 20.1931C69.5118 14.5565 75.582 11.0472 82.0614 11.0472C92.1729 11.0472 100.397 19.3137 100.397 29.4815C100.397 35.9975 96.9239 42.0948 91.3213 45.3948C90.8119 45.6963 90.4863 46.2239 90.4362 46.8102C90.3861 47.3965 90.6282 47.9744 91.0875 48.3513C94.2019 50.9309 95.9804 54.7333 95.9804 58.7703C95.9804 66.2495 89.9269 72.3468 82.4872 72.3468H50.1905C49.1969 72.3468 48.387 73.1593 48.387 74.1643C48.387 75.1694 49.1885 75.9734 50.1905 75.9734H82.4705C91.8974 75.9734 99.5708 68.2596 99.5708 58.7787C99.5708 54.4653 97.9676 50.3614 95.0953 47.2206C100.631 43.0831 103.988 36.4917 103.988 29.4898C103.988 17.3287 94.1518 7.42899 82.0531 7.42899C75.4234 7.42899 69.1694 10.486 65.0363 15.5783C60.2937 6.14756 50.5579 0 39.8869 0C24.3397 0 11.6899 12.7139 11.6899 28.3508C11.6899 31.1063 12.0823 33.8199 12.8589 36.4331C5.20216 39.4985 0.000282288 47.0782 0.000282288 55.4536C0.000282288 66.7521 9.15158 75.9566 20.3987 75.9566L20.3903 75.965Z" fill="#2BDEFD"/>
<path d="M22.1101 73.2928L30.1593 89.4323L31.2948 91.7188H28.0468L37.0144 75.5961L38.2919 73.2928C39.4692 71.1739 42.7173 73.0751 41.54 75.1941L32.5724 91.3167L31.2948 93.62C30.6352 94.8009 28.6814 94.893 28.0468 93.62L19.9977 77.4806L18.8621 75.1941C17.785 73.0332 21.0247 71.1236 22.1101 73.2928Z" fill="#2BDEFD"/>
</g>
<defs>
<clipPath id="clip0_1848_173">
<rect width="103.996" height="94.5417" fill="white" transform="matrix(-1 0 0 1 103.996 0)"/>
</clipPath>
</defs>
</svg>
