<svg width="64" height="51" viewBox="0 0 64 51" fill="none" xmlns="http://www.w3.org/2000/svg">
<path d="M49.75 50.5625C47.125 50.5625 44.8333 50.125 42.875 49.25C40.9583 48.3333 39.375 47.125 38.125 45.625C36.875 44.125 35.9375 42.375 35.3125 40.375C34.6875 38.375 34.375 36.25 34.375 34C34.375 29.5 35.0417 25.4375 36.375 21.8125C37.75 18.1458 39.5208 14.9167 41.6875 12.125C43.8542 9.29167 46.25 6.875 48.875 4.875C51.5417 2.83333 54.1667 1.20833 56.75 0L58.5625 2.4375C54.8958 5.89583 51.9792 8.97917 49.8125 11.6875C47.6458 14.3542 46.5625 16.5833 46.5625 18.375C46.5625 19.4583 47.0208 20.3333 47.9375 21C48.8542 21.6667 49.9792 22.2708 51.3125 22.8125C52.6042 23.3125 53.9583 23.875 55.375 24.5C56.7917 25.125 58.0833 25.9583 59.25 27C60.4583 28 61.4375 29.2708 62.1875 30.8125C62.9792 32.3542 63.375 34.3125 63.375 36.6875C63.375 38.1042 63.0833 39.625 62.5 41.25C61.9583 42.875 61.1042 44.375 59.9375 45.75C58.8125 47.125 57.3958 48.2708 55.6875 49.1875C53.9792 50.1042 52 50.5625 49.75 50.5625ZM15.375 50.5625C12.75 50.5625 10.4583 50.125 8.5 49.25C6.58333 48.3333 5 47.125 3.75 45.625C2.5 44.125 1.5625 42.375 0.9375 40.375C0.3125 38.375 0 36.25 0 34C0 29.5 0.666667 25.4375 2 21.8125C3.375 18.1458 5.14583 14.9167 7.3125 12.125C9.47917 9.29167 11.875 6.875 14.5 4.875C17.1667 2.83333 19.7917 1.20833 22.375 0L24.1875 2.4375C20.5208 5.89583 17.6042 8.97917 15.4375 11.6875C13.2708 14.3542 12.1875 16.5833 12.1875 18.375C12.1875 19.4583 12.6458 20.3333 13.5625 21C14.4792 21.6667 15.6042 22.2708 16.9375 22.8125C18.2292 23.3125 19.5833 23.875 21 24.5C22.4167 25.125 23.7083 25.9583 24.875 27C26.0833 28 27.0625 29.2708 27.8125 30.8125C28.6042 32.3542 29 34.3125 29 36.6875C29 38.1042 28.7083 39.625 28.125 41.25C27.5833 42.875 26.7292 44.375 25.5625 45.75C24.4375 47.125 23.0208 48.2708 21.3125 49.1875C19.6042 50.1042 17.625 50.5625 15.375 50.5625Z" fill="#144480"/>
</svg>
