<svg width="28" height="25" viewBox="0 0 28 25" fill="none" xmlns="http://www.w3.org/2000/svg">
<path d="M14 24.4375L12.0625 22.6875C9.85417 20.6875 8.25 19.2083 7.25 18.25C6.25 17.2917 5.125 16.1042 3.875 14.6875C2.66667 13.2708 1.83333 12 1.375 10.875C0.916667 9.70833 0.6875 8.52083 0.6875 7.3125C0.6875 5.27083 1.375 3.54167 2.75 2.125C4.16667 0.708333 5.91667 0 8 0C10.4167 0 12.4167 0.9375 14 2.8125C15.5833 0.9375 17.5833 0 20 0C22.0833 0 23.8125 0.708333 25.1875 2.125C26.6042 3.54167 27.3125 5.27083 27.3125 7.3125C27.3125 8.9375 26.7708 10.625 25.6875 12.375C24.6042 14.125 23.4167 15.6458 22.125 16.9375C20.875 18.2292 18.8125 20.1667 15.9375 22.75L14 24.4375Z" fill="#444444"/>
</svg>
