<svg width="28" height="25" viewBox="0 0 28 25" fill="none" xmlns="http://www.w3.org/2000/svg">
<path d="M14.125 21.3125C16.125 19.5208 17.6042 18.1667 18.5625 17.25C19.5208 16.3333 20.5625 15.25 21.6875 14C22.8125 12.75 23.5833 11.6458 24 10.6875C24.4583 9.72917 24.6875 8.79167 24.6875 7.875C24.6875 6.54167 24.2292 5.4375 23.3125 4.5625C22.4375 3.6875 21.3333 3.25 20 3.25C18.9583 3.25 17.9792 3.54167 17.0625 4.125C16.1875 4.70833 15.5833 5.45833 15.25 6.375H12.75C12.4167 5.45833 11.7917 4.70833 10.875 4.125C10 3.54167 9.04167 3.25 8 3.25C6.66667 3.25 5.54167 3.6875 4.625 4.5625C3.75 5.4375 3.3125 6.54167 3.3125 7.875C3.3125 8.79167 3.52083 9.72917 3.9375 10.6875C4.39583 11.6458 5.1875 12.75 6.3125 14C7.4375 15.25 8.47917 16.3333 9.4375 17.25C10.3958 18.1667 11.875 19.5208 13.875 21.3125L14 21.4375L14.125 21.3125ZM20 0.5625C22.0833 0.5625 23.8125 1.27083 25.1875 2.6875C26.6042 4.10417 27.3125 5.83333 27.3125 7.875C27.3125 9.08333 27.0833 10.2708 26.625 11.4375C26.1667 12.5625 25.3125 13.8333 24.0625 15.25C22.8542 16.6667 21.75 17.8542 20.75 18.8125C19.75 19.7708 18.1458 21.25 15.9375 23.25L14 25L12.0625 23.3125C9.1875 20.7292 7.10417 18.7917 5.8125 17.5C4.5625 16.2083 3.39583 14.6875 2.3125 12.9375C1.22917 11.1875 0.6875 9.5 0.6875 7.875C0.6875 5.83333 1.375 4.10417 2.75 2.6875C4.16667 1.27083 5.91667 0.5625 8 0.5625C10.4167 0.5625 12.4167 1.5 14 3.375C15.5833 1.5 17.5833 0.5625 20 0.5625Z" fill="#444444"/>
</svg>
